<?xml version="1.0" standalone="no"?>
<!DOCTYPE svg PUBLIC "-//W3C//DTD SVG 20010904//EN"
 "http://www.w3.org/TR/2001/REC-SVG-20010904/DTD/svg10.dtd">
<svg version="1.0" xmlns="http://www.w3.org/2000/svg"
 width="640.000000pt" height="640.000000pt" viewBox="0 0 640.000000 640.000000"
 preserveAspectRatio="xMidYMid meet">
<metadata>
Created by potrace 1.14, written by Peter Selinger 2001-2017
</metadata>
<g transform="translate(0.000000,640.000000) scale(0.100000,-0.100000)"
fill="#000000" stroke="none">
<path d="M3109 5606 c-2 -2 -29 -7 -59 -11 -73 -8 -105 -13 -165 -25 -27 -6
-59 -12 -70 -14 -72 -14 -249 -68 -322 -98 -16 -6 -32 -12 -38 -13 -5 -2 -62
-27 -125 -57 -121 -57 -295 -161 -386 -229 -31 -24 -58 -38 -65 -33 -8 5 -9 3
-5 -5 9 -14 -23 -43 -41 -36 -7 2 -10 -2 -6 -10 3 -8 -2 -18 -11 -21 -10 -4
-48 -37 -87 -75 -63 -62 -74 -69 -70 -46 1 5 -3 6 -8 3 -5 -3 -7 -16 -4 -29 4
-18 3 -19 -6 -7 -9 13 -11 12 -11 -6 0 -23 -44 -69 -77 -79 -13 -3 -23 -11
-23 -18 0 -8 3 -8 12 1 26 26 28 10 2 -17 -15 -17 -31 -28 -35 -26 -4 3 -6 -3
-5 -13 0 -10 -5 -16 -14 -15 -10 2 -16 -6 -16 -21 -1 -14 -14 -37 -28 -53 -14
-15 -26 -34 -26 -41 0 -9 -6 -12 -16 -8 -9 3 -12 2 -9 -4 5 -9 -27 -74 -44
-90 -16 -14 -121 -220 -161 -317 -50 -119 -106 -299 -125 -398 -42 -226 -49
-294 -49 -480 0 -169 8 -263 35 -415 53 -299 173 -601 345 -862 37 -57 70
-105 73 -108 3 -3 32 -38 64 -78 181 -226 432 -432 709 -580 79 -43 295 -137
333 -146 6 -1 43 -13 83 -25 65 -20 193 -50 277 -65 151 -28 409 -38 600 -23
54 5 101 10 105 12 3 1 27 6 54 9 129 18 323 71 476 130 147 58 383 185 495
268 489 360 806 855 925 1441 12 59 13 65 27 182 10 84 10 440 0 510 -4 28
-10 68 -13 90 -11 85 -37 195 -70 307 -211 713 -761 1286 -1459 1523 -60 20
-117 38 -125 40 -8 2 -51 12 -95 23 -44 11 -111 25 -150 31 -38 6 -86 13 -105
17 -38 7 -485 16 -491 10z"/>
<path d="M1736 5032 c-2 -4 4 -8 14 -8 10 0 16 4 14 8 -3 4 -9 8 -14 8 -5 0
-11 -4 -14 -8z"/>
<path d="M1639 5013 c-1 -5 -1 -12 0 -17 1 -5 -4 -13 -11 -17 -8 -5 -6 -8 9
-6 17 1 20 5 13 18 -5 9 -6 19 -3 23 3 3 3 6 0 6 -4 0 -8 -3 -8 -7z"/>
<path d="M1697 5000 c-3 -11 -2 -22 2 -24 4 -3 8 6 9 20 2 29 -4 31 -11 4z"/>
<path d="M1662 4961 c-11 -7 -11 -9 1 -14 16 -6 27 0 27 15 0 10 -11 10 -28
-1z"/>
<path d="M1535 4940 c-3 -5 -1 -10 4 -10 6 0 11 5 11 10 0 6 -2 10 -4 10 -3 0
-8 -4 -11 -10z"/>
<path d="M1550 4899 c0 -5 5 -7 10 -4 6 3 10 8 10 11 0 2 -4 4 -10 4 -5 0 -10
-5 -10 -11z"/>
<path d="M1591 4887 c16 -31 18 -32 16 -8 -1 11 -7 23 -14 26 -11 4 -11 0 -2
-18z"/>
<path d="M1572 4858 c-1 -26 1 -30 9 -15 6 10 6 23 1 33 -7 12 -9 8 -10 -18z"/>
<path d="M1534 4862 c3 -6 -2 -13 -11 -15 -16 -4 -16 -5 -1 -6 21 -1 32 15 17
25 -7 4 -9 3 -5 -4z"/>
<path d="M1484 4802 c4 -3 14 -7 22 -8 9 -1 13 0 10 4 -4 3 -14 7 -22 8 -9 1
-13 0 -10 -4z"/>
<path d="M1355 4721 c-3 -5 -2 -12 3 -15 5 -3 9 1 9 9 0 17 -3 19 -12 6z"/>
<path d="M1430 4716 c0 -2 8 -10 18 -17 15 -13 16 -12 3 4 -13 16 -21 21 -21
13z"/>
</g>
</svg>
